<!DOCTYPE svg PUBLIC "-//W3C//DTD SVG 1.1//EN" "http://www.w3.org/Graphics/SVG/1.1/DTD/svg11.dtd">
<svg height="200px" width="200px" version="1.1" id="SVGRepoEditor" xmlns="http://www.w3.org/2000/svg" xmlns:xlink="http://www.w3.org/1999/xlink" viewBox="0 0 512 512" xml:space="preserve" fill="#000000" stroke="#000000" stroke-width="0">
<g id="SVGRepo_bgCarrier" stroke-width="0"/> <path style="fill:#8F5543;" d="M411.918,101.682H100.084c-8.271,0-15.459-5.678-17.375-13.724L67.006,21.997 C64.335,10.777,72.857,0,84.381,0h343.238c11.531,0,20.044,10.785,17.375,21.997l-15.702,65.961 C427.377,96.004,420.188,101.682,411.918,101.682z"/> <path style="fill:#784738;" d="M427.62,0H256.001v101.682h155.917c8.271,0,15.459-5.68,17.375-13.724l15.702-65.961 C447.664,10.785,439.15,0,427.62,0z"/> <path style="fill:#8F5543;" d="M427.62,512H84.381c-11.533,0-20.044-10.785-17.375-21.997l15.703-65.961 c1.916-8.047,9.104-13.724,17.375-13.724h311.834c8.271,0,15.459,5.68,17.375,13.724l15.702,65.961 C447.665,501.221,439.144,512,427.62,512z"/> <path style="fill:#784738;" d="M444.993,490.003l-15.702-65.961c-1.915-8.046-9.104-13.724-17.375-13.724H256.001V512H427.62 C439.144,512,447.665,501.221,444.993,490.003z"/> <path style="fill:#C97E67;" d="M411.912,446.04H100.088c-8.248,0-15.424-5.649-17.362-13.667 c-26.458-109.513-26.504-243.034,0-352.753c1.936-8.017,9.112-13.667,17.362-13.667h311.823c8.249,0,15.424,5.649,17.362,13.667 c26.45,109.505,26.512,243.021-0.001,352.753C427.336,440.391,420.161,446.04,411.912,446.04z"/> <path style="fill:#8F5543;" d="M429.273,79.622c-1.937-8.017-9.112-13.667-17.362-13.667H256.001V446.04h155.911 c8.249,0,15.424-5.649,17.36-13.667C455.785,322.643,455.724,189.128,429.273,79.622z"/> <path style="fill:#FAE8AC;" d="M296.232,342.748h-80.463c-27.017,0-48.997-21.98-48.997-48.996V187.107 c0-13.524,14.486-22.135,26.36-15.708l43.932,23.771h37.87l43.932-23.771c11.89-6.437,26.361,2.204,26.361,15.708v106.645 C345.228,320.769,323.248,342.748,296.232,342.748z"/> <path style="fill:#F6D86E;" d="M318.868,171.399l-43.932,23.771h-18.936v147.579h40.231c27.016,0,48.996-21.98,48.996-48.996 V187.107C345.228,173.603,330.757,164.962,318.868,171.399z"/> </svg>